<svg width="50" height="50" viewBox="0 0 50 50" fill="none" xmlns="http://www.w3.org/2000/svg">
<g clip-path="url(#clip0_76_538)">
<path d="M0.731201 13.7813L23.5812 1.11257C24.4625 0.625073 25.5375 0.625073 26.425 1.11257L49.2749 13.7813H0.731201Z" fill="#AEE69C"/>
<path d="M26.4187 1.11257C25.5374 0.625073 24.4624 0.625073 23.5812 1.11257L23.1437 1.35632L45.5562 13.7813H49.2687L26.4187 1.11257Z" fill="#89DAA4"/>
<path d="M24.9999 39.1813C29.2312 39.1813 32.6624 35.7501 32.6624 31.5188C32.6624 27.2876 29.2312 23.8563 24.9999 23.8563C20.7687 23.8563 17.3374 27.2876 17.3374 31.5188C17.3374 35.7501 20.7687 39.1813 24.9999 39.1813Z" fill="#FFE179"/>
<path d="M25 23.8563C24.5 23.8563 24.0125 23.9063 23.5375 24.0001C27.0687 24.6813 29.7312 27.7876 29.7312 31.5188C29.7312 35.2501 27.0687 38.3563 23.5375 39.0376C24.0125 39.1313 24.5 39.1813 25 39.1813C29.2312 39.1813 32.6625 35.7501 32.6625 31.5188C32.6625 27.2876 29.2312 23.8563 25 23.8563Z" fill="#FBD268"/>
<path d="M24.9999 10.4376C26.4562 10.4376 27.6374 9.25635 27.6374 7.8001C27.6374 6.34385 26.4562 5.1626 24.9999 5.1626C23.5437 5.1626 22.3624 6.34385 22.3624 7.8001C22.3624 9.25635 23.5437 10.4376 24.9999 10.4376Z" fill="#3D6D93"/>
<path d="M25 5.1626C24.4562 5.1626 23.9562 5.3251 23.5375 5.60635C24.2437 6.08135 24.7125 6.8876 24.7125 7.8001C24.7125 8.7126 24.25 9.51885 23.5375 9.99385C23.9562 10.2751 24.4625 10.4376 25 10.4376C26.4562 10.4376 27.6375 9.25635 27.6375 7.8001C27.6375 6.34385 26.4562 5.1626 25 5.1626Z" fill="#335E80"/>
<path d="M46.3375 44.8625H34.5938L37.525 40.7375H43.4062L46.3375 44.8625Z" fill="#AEE69C"/>
<path d="M43.4062 40.7375H40.475L43.4062 44.8625H46.3375L43.4062 40.7375Z" fill="#89DAA4"/>
<path d="M46.3375 18.175H34.5938L37.525 22.3001H43.4062L46.3375 18.175Z" fill="#AEE69C"/>
<path d="M43.4062 18.175L40.475 22.3001H43.4062L46.3375 18.175H43.4062Z" fill="#89DAA4"/>
<path d="M37.5249 22.3H43.4062V40.7438H37.5249V22.3Z" fill="#EAF6FF"/>
<path d="M40.4812 22.3H43.4125V40.7438H40.4812V22.3Z" fill="#D8ECFE"/>
<path d="M15.4062 44.8625H3.66248L6.59373 40.7375H12.475L15.4062 44.8625Z" fill="#AEE69C"/>
<path d="M15.4062 18.175H3.66248L6.59373 22.3001H12.475L15.4062 18.175Z" fill="#AEE69C"/>
<path d="M6.59375 22.3H12.475V40.7438H6.59375V22.3Z" fill="#EAF6FF"/>
<path d="M12.4749 40.7375H9.5437L12.4749 44.8625H15.4062L12.4749 40.7375Z" fill="#89DAA4"/>
<path d="M12.4749 18.175L9.5437 22.3001H12.4749L15.4062 18.175H12.4749Z" fill="#89DAA4"/>
<path d="M9.5437 22.3H12.4749V40.7438H9.5437V22.3Z" fill="#D8ECFE"/>
<path d="M0.731201 13.7812H49.2687V15.9812C49.2687 17.1937 48.2874 18.1812 47.0687 18.1812H2.9312C1.7187 18.1812 0.731201 17.2 0.731201 15.9812V13.7812Z" fill="#3D6D93"/>
<path d="M46.3374 13.7812V15.9812C46.3374 17.1937 45.3562 18.1812 44.1375 18.1812H47.0687C48.2812 18.1812 49.2687 17.2 49.2687 15.9812V13.7812H46.3374Z" fill="#335E80"/>
<path d="M1.7062 44.8625H48.2875C48.825 44.8625 49.2625 45.3 49.2625 45.8375V48.2813C49.2625 48.8188 48.825 49.2563 48.2875 49.2563H1.7062C1.1687 49.2563 0.731201 48.8188 0.731201 48.2813V45.8375C0.731201 45.3 1.1687 44.8625 1.7062 44.8625Z" fill="#3D6D93"/>
<path d="M48.2937 44.8625H45.3624C45.8999 44.8625 46.3374 45.3 46.3374 45.8375V48.2813C46.3374 48.8188 45.8999 49.2563 45.3624 49.2563H48.2937C48.8312 49.2563 49.2687 48.8188 49.2687 48.2813V45.8375C49.2687 45.3 48.8312 44.8625 48.2937 44.8625Z" fill="#335E80"/>
<path d="M28.3687 7.80005C28.3687 5.9438 26.8562 4.4313 25 4.4313C23.1437 4.4313 21.6312 5.9438 21.6312 7.80005C21.6312 9.6563 23.1437 11.1688 25 11.1688C26.8562 11.1688 28.3687 9.66255 28.3687 7.80005ZM23.0937 7.80005C23.0937 6.75005 23.95 5.8938 25 5.8938C26.05 5.8938 26.9062 6.75005 26.9062 7.80005C26.9062 8.85005 26.05 9.7063 25 9.7063C23.95 9.7063 23.0937 8.85005 23.0937 7.80005ZM25 23.125C20.375 23.125 16.6062 26.8875 16.6062 31.5188C16.6062 36.15 20.375 39.9125 25 39.9125C29.625 39.9125 33.3937 36.15 33.3937 31.5188C33.3937 26.8875 29.625 23.125 25 23.125ZM25 38.4438C21.1812 38.4438 18.075 35.3375 18.075 31.5188C18.075 27.7 21.1812 24.5938 25 24.5938C28.8187 24.5938 31.925 27.7 31.925 31.5188C31.925 35.3375 28.8187 38.4438 25 38.4438ZM46.7187 18.9063C48.4125 19.0125 50.0187 17.7813 50 15.975V13.775C49.9875 13.5625 49.9187 13.3 49.6125 13.1313L26.775 0.475049C25.6625 -0.143701 24.3375 -0.143701 23.225 0.475049L10.5937 7.47505C10.2375 7.6688 10.1125 8.1188 10.3062 8.4688C10.5 8.82505 10.95 8.95005 11.3 8.7563L23.9375 1.7563C24.6062 1.38755 25.4 1.38755 26.0687 1.7563L46.4375 13.0438H3.56245L11.6937 8.53755C12.05 8.3438 12.175 7.8938 11.9812 7.5438C11.7875 7.18755 11.3375 7.06255 10.9875 7.2563L0.387453 13.1313C0.218703 13.2313 -4.72811e-05 13.4438 -4.72811e-05 13.7813V15.9813C-0.0125473 17.7063 1.5437 19.1 3.2812 18.9125L5.8562 22.5375V40.5125L3.2812 44.1376H1.7062C0.768703 44.1313 -4.72811e-05 44.9 -4.72811e-05 45.8375V48.2813C-4.72811e-05 49.225 0.768703 49.9875 1.7062 49.9875H48.2875C49.2312 49.9875 49.9937 49.2188 49.9937 48.2813V45.8375C49.9937 44.8938 49.225 44.1313 48.2875 44.1313H46.7125L44.1375 40.5063V22.5313L46.7187 18.9063ZM2.9312 17.4438C2.12495 17.4438 1.4687 16.7875 1.4687 15.9813V14.5188H48.5375V15.9813C48.5375 16.7875 47.8812 17.4438 47.075 17.4438H2.9312ZM37.525 35.6938C37.9312 35.6938 38.2562 35.3688 38.2562 34.9625V23.0313H42.675V40.0063H38.2562V34.8313C38.2562 34.425 37.9312 34.1 37.525 34.1C37.1187 34.1 36.7937 34.425 36.7937 34.8313V40.5063L34.2187 44.1313H15.7812L13.2062 40.5063V22.5313L15.7812 18.9063H34.2125L36.7875 22.5313V34.9625C36.7937 35.3625 37.1187 35.6938 37.525 35.6938ZM5.0812 18.9063H13.9875L12.1 21.5625H6.97495L5.0812 18.9063ZM11.7437 23.0313V40.0063H7.32495V23.0313H11.7437ZM6.9687 41.4688H12.0937L13.9812 44.125H5.0812L6.9687 41.4688ZM48.2937 45.5938C48.4312 45.5938 48.5375 45.7063 48.5375 45.8375V48.2813C48.5375 48.4188 48.425 48.525 48.2937 48.525H1.7062C1.5687 48.525 1.46245 48.4125 1.46245 48.2813V45.8375C1.46245 45.7 1.57495 45.5938 1.7062 45.5938H48.2937ZM44.9187 44.1313H36.0125L37.9 41.475H43.025L44.9187 44.1313ZM43.0312 21.5625H37.9062L36.0187 18.9063H44.925L43.0312 21.5625Z" fill="black"/>
<path d="M27.4937 34.6125C27.3312 34.6125 27.1749 34.55 27.0499 34.4313L22.4437 29.825C22.1999 29.5813 22.1999 29.1875 22.4437 28.9438C22.6874 28.7 23.0812 28.7 23.3249 28.9438L27.9312 33.55C28.1749 33.7938 28.1749 34.1875 27.9312 34.4313C27.8124 34.5563 27.6562 34.6125 27.4937 34.6125Z" fill="black"/>
<path d="M22.8874 34.6125C22.7249 34.6125 22.5687 34.55 22.4437 34.4313C22.1999 34.1875 22.1999 33.7938 22.4437 33.55L27.0499 28.9438C27.2937 28.7 27.6874 28.7 27.9312 28.9438C28.1749 29.1875 28.1749 29.5813 27.9312 29.825L23.3249 34.4313C23.2062 34.5563 23.0499 34.6125 22.8874 34.6125Z" fill="black"/>
</g>
<defs>
<clipPath id="clip0_76_538">
<rect width="50" height="50" fill="white"/>
</clipPath>
</defs>
</svg>
