<svg width="50" height="50" viewBox="0 0 50 50" fill="none" xmlns="http://www.w3.org/2000/svg">
<path d="M0.488281 15.332C0.488281 13.1738 2.23633 11.4258 4.39453 11.4258H41.6992C43.8574 11.4258 45.6055 13.1738 45.6055 15.332V37.793C45.6055 39.9512 43.8574 41.6992 41.6992 41.6992H0.488281" fill="#7587B3"/>
<path d="M29.9805 0.488281H33.8867C38.2031 0.488281 41.6992 4.86328 41.6992 10.2539C41.6992 15.6445 38.2031 20.0195 33.8867 20.0195H29.9805" fill="#FFDCA4"/>
<path d="M41.6992 10.2539C41.6992 15.6445 38.2031 20.0195 33.8867 20.0195H29.9805V7.03125H41.2598C41.543 8.00781 41.6992 9.12109 41.6992 10.2539Z" fill="#FFC96F"/>
<path d="M41.2598 13.4766C40.1953 17.2852 37.2949 20.0195 33.8867 20.0195H29.9805V13.4766H41.2598Z" fill="#FFB234"/>
<path d="M29.9805 20.0195C34.2952 20.0195 37.793 15.6473 37.793 10.2539C37.793 4.8605 34.2952 0.488281 29.9805 0.488281C25.6657 0.488281 22.168 4.8605 22.168 10.2539C22.168 15.6473 25.6657 20.0195 29.9805 20.0195Z" fill="#FFDCA4"/>
<path d="M29.9805 18.0664C33.2165 18.0664 35.8398 14.5686 35.8398 10.2539C35.8398 5.93918 33.2165 2.44141 29.9805 2.44141C26.7444 2.44141 24.1211 5.93918 24.1211 10.2539C24.1211 14.5686 26.7444 18.0664 29.9805 18.0664Z" fill="#FFC96F"/>
<path d="M25.293 10.2539C25.293 6.20117 27.6074 2.87109 30.5664 2.48047C30.3711 2.45117 30.1758 2.44141 29.9805 2.44141C26.748 2.44141 24.1211 5.9375 24.1211 10.2539C24.1211 14.5703 26.748 18.0664 29.9805 18.0664C30.1758 18.0664 30.3711 18.0566 30.5664 18.0273C27.6074 17.6367 25.293 14.3066 25.293 10.2539Z" fill="#FFB234"/>
<path d="M31.4453 14.6484H27.1484C26.875 14.6484 26.6602 14.4336 26.6602 14.1602V6.34766C26.6602 6.07422 26.875 5.85938 27.1484 5.85938H31.4453C32.793 5.85938 33.8867 6.95312 33.8867 8.30078C33.8867 9.10156 33.5059 9.80469 32.9102 10.2539C33.5059 10.7031 33.8867 11.4062 33.8867 12.207C33.8867 13.5547 32.793 14.6484 31.4453 14.6484ZM27.6367 13.6719H31.4453C32.2559 13.6719 32.9102 13.0176 32.9102 12.207C32.9102 11.3965 32.2559 10.7422 31.4453 10.7422H27.6367V13.6719ZM27.6367 9.76562H31.4453C32.2559 9.76562 32.9102 9.11133 32.9102 8.30078C32.9102 7.49023 32.2559 6.83594 31.4453 6.83594H27.6367V9.76562Z" fill="#FFDCA4"/>
<path d="M28.125 4.39453H29.1016V6.34766H28.125V4.39453Z" fill="#FFDCA4"/>
<path d="M30.6641 4.39453H31.6406V6.34766H30.6641V4.39453Z" fill="#FFDCA4"/>
<path d="M28.125 14.1602H29.1016V16.1133H28.125V14.1602Z" fill="#FFDCA4"/>
<path d="M30.6641 14.1602H31.6406V16.1133H30.6641V14.1602Z" fill="#FFDCA4"/>
<path d="M10.4492 9.47266H14.3555C18.6719 9.47266 22.168 13.8477 22.168 19.2383C22.168 24.6289 18.6719 29.0039 14.3555 29.0039H10.4492" fill="#FFD797"/>
<path d="M22.168 19.2383C22.168 24.6289 18.6719 29.0039 14.3555 29.0039H10.4492V16.0156H21.7285C22.0117 16.9922 22.168 18.1055 22.168 19.2383Z" fill="#FFC96F"/>
<path d="M21.7285 22.4609C20.6641 26.2695 17.7637 29.0039 14.3555 29.0039H10.4492V22.4609H21.7285Z" fill="#FFB234"/>
<path d="M10.4492 29.0039C14.7639 29.0039 18.2617 24.6317 18.2617 19.2383C18.2617 13.8449 14.7639 9.47266 10.4492 9.47266C6.13449 9.47266 2.63672 13.8449 2.63672 19.2383C2.63672 24.6317 6.13449 29.0039 10.4492 29.0039Z" fill="#FFDCA4"/>
<path d="M10.4492 27.0508C13.6853 27.0508 16.3086 23.553 16.3086 19.2383C16.3086 14.9236 13.6853 11.4258 10.4492 11.4258C7.21318 11.4258 4.58984 14.9236 4.58984 19.2383C4.58984 23.553 7.21318 27.0508 10.4492 27.0508Z" fill="#FFC96F"/>
<path d="M5.76172 19.2383C5.76172 15.1855 8.07617 11.8555 11.0352 11.4648C10.8398 11.4355 10.6445 11.4258 10.4492 11.4258C7.2168 11.4258 4.58984 14.9219 4.58984 19.2383C4.58984 23.5547 7.2168 27.0508 10.4492 27.0508C10.6445 27.0508 10.8398 27.041 11.0352 27.0117C8.07617 26.6211 5.76172 23.291 5.76172 19.2383Z" fill="#FFB234"/>
<path d="M11.9141 23.6328H7.61719C7.34375 23.6328 7.12891 23.418 7.12891 23.1445V15.332C7.12891 15.0586 7.34375 14.8438 7.61719 14.8438H11.9141C13.2617 14.8438 14.3555 15.9375 14.3555 17.2852C14.3555 18.0859 13.9746 18.7891 13.3789 19.2383C13.9746 19.6875 14.3555 20.3906 14.3555 21.1914C14.3555 22.5391 13.2617 23.6328 11.9141 23.6328ZM8.10547 22.6562H11.9141C12.7246 22.6562 13.3789 22.002 13.3789 21.1914C13.3789 20.3809 12.7246 19.7266 11.9141 19.7266H8.10547V22.6562ZM8.10547 18.75H11.9141C12.7246 18.75 13.3789 18.0957 13.3789 17.2852C13.3789 16.4746 12.7246 15.8203 11.9141 15.8203H8.10547V18.75Z" fill="#FFDCA4"/>
<path d="M8.59375 13.3789H9.57031V15.332H8.59375V13.3789Z" fill="#FFDCA4"/>
<path d="M11.1328 13.3789H12.1094V15.332H11.1328V13.3789Z" fill="#FFDCA4"/>
<path d="M8.59375 23.1445H9.57031V25.0977H8.59375V23.1445Z" fill="#FFDCA4"/>
<path d="M11.1328 23.1445H12.1094V25.0977H11.1328V23.1445Z" fill="#FFDCA4"/>
<path d="M35.6445 49.5117H4.39453C2.23633 49.5117 0.488281 47.7637 0.488281 45.6055V15.332C0.488281 17.4902 2.23633 19.2383 4.39453 19.2383H35.6445C37.8027 19.2383 39.5508 20.9863 39.5508 23.1445V45.6055C39.5508 47.7637 37.8027 49.5117 35.6445 49.5117Z" fill="#87A1C1"/>
<path d="M49.5117 34.1992C49.5117 31.6211 47.6953 31.25 45.6055 31.25V21.4844C47.6953 21.4844 49.5117 21.8555 49.5117 24.4336V34.1992Z" fill="#7DA6C0"/>
<path d="M49.5117 24.4336V34.1992C49.5117 36.7773 46.9336 39.2578 39.5508 39.2578H28.8086C26.1133 39.2578 23.9258 37.0703 23.9258 34.375C23.9258 31.6797 26.1133 29.4922 28.8086 29.4922H39.5508C46.9336 29.4922 49.5117 27.0117 49.5117 24.4336Z" fill="#9ABBD0"/>
<path d="M28.8086 36.3281C29.8873 36.3281 30.7617 35.4537 30.7617 34.375C30.7617 33.2963 29.8873 32.4219 28.8086 32.4219C27.7299 32.4219 26.8555 33.2963 26.8555 34.375C26.8555 35.4537 27.7299 36.3281 28.8086 36.3281Z" fill="white"/>
<path d="M13.2812 28.418H8.88672V27.4414H13.1348L19.7559 23.125C19.834 23.0762 19.9316 23.0469 20.0195 23.0469H39.5508V24.0234H20.166L13.5449 28.3398C13.4668 28.3887 13.3789 28.418 13.2812 28.418Z" fill="white"/>
<path d="M7.42188 29.3945C8.23089 29.3945 8.88672 28.7387 8.88672 27.9297C8.88672 27.1207 8.23089 26.4648 7.42188 26.4648C6.61286 26.4648 5.95703 27.1207 5.95703 27.9297C5.95703 28.7387 6.61286 29.3945 7.42188 29.3945Z" fill="white"/>
<path d="M14.7461 33.6914C15.5551 33.6914 16.2109 33.0356 16.2109 32.2266C16.2109 31.4176 15.5551 30.7617 14.7461 30.7617C13.9371 30.7617 13.2812 31.4176 13.2812 32.2266C13.2812 33.0356 13.9371 33.6914 14.7461 33.6914Z" fill="white"/>
<path d="M15.1367 46.6797C15.9457 46.6797 16.6016 46.0239 16.6016 45.2148C16.6016 44.4058 15.9457 43.75 15.1367 43.75C14.3277 43.75 13.6719 44.4058 13.6719 45.2148C13.6719 46.0239 14.3277 46.6797 15.1367 46.6797Z" fill="white"/>
<path d="M7.42188 42.2852C8.23089 42.2852 8.88672 41.6293 8.88672 40.8203C8.88672 40.0113 8.23089 39.3555 7.42188 39.3555C6.61286 39.3555 5.95703 40.0113 5.95703 40.8203C5.95703 41.6293 6.61286 42.2852 7.42188 42.2852Z" fill="white"/>
<path d="M16.6504 41.3086H8.88672V40.332H16.416L19.6387 36.2207C19.7266 36.1035 19.873 36.0352 20.0195 36.0352H24.4141V37.0117H20.2539L17.0312 41.123C16.9434 41.2402 16.7969 41.3086 16.6504 41.3086Z" fill="white"/>
<path d="M16.2109 31.7383H24.4141V32.7148H16.2109V31.7383Z" fill="white"/>
<path d="M16.6016 44.7266H39.6484V45.7031H16.6016V44.7266Z" fill="white"/>
</svg>
