<svg width="50" height="50" viewBox="0 0 50 50" fill="none" xmlns="http://www.w3.org/2000/svg">
<g clip-path="url(#clip0_76_523)">
<path d="M43.7417 6.66096C38.2339 6.66096 32.8943 4.76321 28.6217 1.28733C26.5122 -0.428947 23.4877 -0.428947 21.3782 1.28733C17.1057 4.76331 11.766 6.66096 6.25828 6.66096C4.53838 6.66096 3.14417 8.05517 3.14417 9.77507V18.1213C3.14417 28.8283 7.96544 38.9662 16.271 45.7233L18.8345 47.8088C22.4257 50.7306 27.5746 50.7306 31.1658 47.8088L33.7293 45.7233C42.0348 38.9663 46.8561 28.8279 46.8561 18.121C46.8561 14.9166 46.8561 11.9054 46.8561 9.77439C46.8558 8.05448 45.4616 6.66096 43.7417 6.66096Z" fill="url(#paint0_linear_76_523)"/>
<path d="M24.9999 47.2522C24.3996 47.2522 23.8123 47.0435 23.3465 46.6646L18.4437 42.6757C14.8626 39.7622 11.9216 36.0185 9.93887 31.8494C7.95612 27.6802 6.90808 23.0363 6.90808 18.4198V11.7964C6.90808 10.9951 7.56318 10.3138 8.36338 10.2715C13.8199 9.98299 19.0951 7.95956 23.3465 4.50073C23.8124 4.12171 24.3996 3.91309 24.9999 3.91309C25.6004 3.91309 26.1876 4.12171 26.6534 4.50063C30.9049 7.95956 36.1802 9.98299 41.6368 10.2715C42.4368 10.3138 43.0918 10.995 43.0918 11.7962V18.4194C43.0918 23.036 42.0438 27.6799 40.061 31.8492C38.0783 36.0185 35.1374 39.7622 31.5563 42.6757L26.6534 46.6646C26.1876 47.0436 25.6004 47.2522 24.9999 47.2522Z" fill="url(#paint1_linear_76_523)"/>
<path d="M24.9999 45.4238C24.4501 45.4238 23.9125 45.2327 23.486 44.8858L18.9969 41.2336C15.718 38.5659 13.0252 35.1381 11.2098 31.3208C9.39442 27.5036 8.43481 23.2515 8.43481 19.0245V12.9601C8.43481 12.2264 9.03462 11.6026 9.76727 11.5638C14.7633 11.2996 19.5934 9.44692 23.486 6.27996C23.9126 5.933 24.4502 5.74182 24.9999 5.74182C25.5497 5.74182 26.0874 5.9329 26.5137 6.27986C30.4065 9.44692 35.2367 11.2996 40.2328 11.5638C40.9653 11.6025 41.565 12.2262 41.565 12.9598V19.024C41.565 23.251 40.6054 27.5031 38.79 31.3206C36.9746 35.138 34.2819 38.5658 31.003 41.2335L26.5137 44.8857C26.0874 45.2327 25.5497 45.4238 24.9999 45.4238Z" fill="url(#paint2_linear_76_523)"/>
<path d="M46.8559 9.77431C46.8559 8.05441 45.4617 6.66088 43.7418 6.66088C38.2339 6.66088 32.8943 4.76314 28.6218 1.28725C27.567 0.429118 26.2835 0 25 0V50C27.185 50 29.37 49.2696 31.1657 47.8087L33.7291 45.7232C42.0346 38.9662 46.8559 28.8278 46.856 18.1209C46.8559 14.9165 46.8559 11.9052 46.8559 9.77431Z" fill="url(#paint3_linear_76_523)"/>
<path d="M41.3162 14.55C40.3367 13.5706 38.7486 13.7714 37.7691 14.7508L25.5486 26.9712C25.4295 27.0903 25.0928 27.3161 24.9999 27.3161C24.907 27.3161 24.7711 27.2911 24.6519 27.1719L19.9676 22.4876C18.988 21.5082 17.5004 21.5082 16.5209 22.4876C15.5414 23.4671 15.441 24.8544 16.4205 25.8339L35.1181 44.5315C42.0916 38.2361 46.2928 29.4337 46.8028 20.0556L41.3162 14.55Z" fill="url(#paint4_linear_76_523)"/>
<path d="M33.7291 45.7231C39.6572 40.9002 43.8097 34.3544 45.7016 27.109L34.3991 15.8066C32.0403 13.3153 28.7019 11.9615 25.0001 11.9615C17.9472 11.9614 12.2588 17.65 12.2589 24.7028C12.2589 28.4046 13.6126 31.7429 16.1041 34.1017L29.6882 47.6859C30.1032 48.1009 30.765 48.1348 31.2203 47.7644L33.7291 45.7231Z" fill="url(#paint5_linear_76_523)"/>
<path d="M25 37.6445C32.1476 37.6445 37.9418 31.8502 37.9418 24.7026C37.9418 17.555 32.1476 11.7607 25 11.7607C17.8524 11.7607 12.0581 17.555 12.0581 24.7026C12.0581 31.8502 17.8524 37.6445 25 37.6445Z" fill="url(#paint6_linear_76_523)"/>
<path d="M35.4508 17.0691L25.5486 26.9711C25.4295 27.0903 25.0928 27.316 24.9999 27.316C24.907 27.316 24.7711 27.291 24.6519 27.1718L19.9675 22.4875C18.988 21.5081 17.5004 21.5081 16.5209 22.4875C15.5414 23.467 15.441 24.8543 16.4205 25.8338L27.9038 37.3171C33.6531 35.999 37.9418 30.8517 37.9418 24.7025C37.9418 21.8476 37.0166 19.2092 35.4508 17.0691Z" fill="url(#paint7_linear_76_523)"/>
<path d="M25 32.1315C23.5286 32.1315 22.1453 31.5585 21.1049 30.5181L16.4205 25.8339C15.441 24.8544 15.441 23.2664 16.4205 22.2868C17.4 21.3074 18.988 21.3074 19.9676 22.2868L24.6519 26.9712C24.7711 27.0904 24.907 27.1154 25 27.1154C25.0929 27.1154 25.2288 27.0904 25.348 26.9712L37.7692 14.55C38.7487 13.5706 40.3367 13.5706 41.3162 14.55C42.2957 15.5295 42.2957 17.1175 41.3162 18.097L28.8951 30.5181C27.8547 31.5585 26.4713 32.1315 25 32.1315Z" fill="url(#paint8_linear_76_523)"/>
</g>
<defs>
<linearGradient id="paint0_linear_76_523" x1="6.68789" y1="2.36056" x2="44.3806" y2="40.0533" gradientUnits="userSpaceOnUse">
<stop stop-color="#B5DBFF"/>
<stop offset="1" stop-color="#76E2F8"/>
</linearGradient>
<linearGradient id="paint1_linear_76_523" x1="49.595" y1="45.8676" x2="16.2448" y2="12.5173" gradientUnits="userSpaceOnUse">
<stop stop-color="#B5DBFF" stop-opacity="0"/>
<stop offset="0.2428" stop-color="#93CEF6" stop-opacity="0.243"/>
<stop offset="0.5763" stop-color="#6ABFEC" stop-opacity="0.576"/>
<stop offset="0.8403" stop-color="#51B5E5" stop-opacity="0.84"/>
<stop offset="1" stop-color="#48B2E3"/>
</linearGradient>
<linearGradient id="paint2_linear_76_523" x1="18.5518" y1="15.1882" x2="33.2018" y2="29.8382" gradientUnits="userSpaceOnUse">
<stop stop-color="#EDF5FF"/>
<stop offset="1" stop-color="#D5E8FE"/>
</linearGradient>
<linearGradient id="paint3_linear_76_523" x1="29.5425" y1="25.8422" x2="-0.554797" y2="11.3956" gradientUnits="userSpaceOnUse">
<stop stop-color="#B5DBFF" stop-opacity="0"/>
<stop offset="0.1734" stop-color="#8FC5E9" stop-opacity="0.173"/>
<stop offset="0.4541" stop-color="#56A4C8" stop-opacity="0.454"/>
<stop offset="0.6955" stop-color="#2D8DB1" stop-opacity="0.696"/>
<stop offset="0.8853" stop-color="#147EA2" stop-opacity="0.885"/>
<stop offset="1" stop-color="#0B799D"/>
</linearGradient>
<linearGradient id="paint4_linear_76_523" x1="41.056" y1="31.6846" x2="30.756" y2="23.8593" gradientUnits="userSpaceOnUse">
<stop stop-color="#B5DBFF" stop-opacity="0"/>
<stop offset="0.1734" stop-color="#8FC5E9" stop-opacity="0.173"/>
<stop offset="0.4541" stop-color="#56A4C8" stop-opacity="0.454"/>
<stop offset="0.6955" stop-color="#2D8DB1" stop-opacity="0.696"/>
<stop offset="0.8853" stop-color="#147EA2" stop-opacity="0.885"/>
<stop offset="1" stop-color="#0B799D"/>
</linearGradient>
<linearGradient id="paint5_linear_76_523" x1="39.3222" y1="39.0248" x2="22.1556" y2="21.8582" gradientUnits="userSpaceOnUse">
<stop stop-color="#B5DBFF" stop-opacity="0"/>
<stop offset="0.1734" stop-color="#8FC5E9" stop-opacity="0.173"/>
<stop offset="0.4541" stop-color="#56A4C8" stop-opacity="0.454"/>
<stop offset="0.6955" stop-color="#2D8DB1" stop-opacity="0.696"/>
<stop offset="0.8853" stop-color="#147EA2" stop-opacity="0.885"/>
<stop offset="1" stop-color="#0B799D"/>
</linearGradient>
<linearGradient id="paint6_linear_76_523" x1="18.9805" y1="18.6832" x2="31.4547" y2="31.1573" gradientUnits="userSpaceOnUse">
<stop stop-color="#B9DD39"/>
<stop offset="1" stop-color="#90CC1C"/>
</linearGradient>
<linearGradient id="paint7_linear_76_523" x1="36.7632" y1="32.2791" x2="32.1247" y2="27.6405" gradientUnits="userSpaceOnUse">
<stop stop-color="#66BB00" stop-opacity="0"/>
<stop offset="1" stop-color="#66BB00"/>
</linearGradient>
<linearGradient id="paint8_linear_76_523" x1="23.8609" y1="15.1844" x2="36.7808" y2="28.1043" gradientUnits="userSpaceOnUse">
<stop stop-color="#0B799D"/>
<stop offset="1" stop-color="#07485E"/>
</linearGradient>
<clipPath id="clip0_76_523">
<rect width="50" height="50" fill="white"/>
</clipPath>
</defs>
</svg>
